<?xml version="1.0" encoding="UTF-8"?>
<svg id="_レイヤー_2" data-name="レイヤー_2" xmlns="http://www.w3.org/2000/svg" version="1.1" viewBox="0 0 256 256">
  <!-- Generator: Adobe Illustrator 30.3.0, SVG Export Plug-In . SVG Version: 2.1.1 Build 104)  -->
  <defs>
    <style>
      .st0 {
        fill: #fff;
      }

      .st1 {
        display: none;
        font-family: MeiryoUI-Bold, 'Meiryo UI';
        font-size: 103px;
        font-weight: 700;
        opacity: .31;
      }
    </style>
  </defs>
  <rect class="st0" width="256" height="256"/>
  <g>
    <rect x="8" y="0" width="31" height="256"/>
    <rect class="st0" x="16" width="16" height="8"/>
    <rect class="st0" x="16" y="16" width="16" height="24"/>
    <rect class="st0" x="16" y="48" width="16" height="24"/>
    <rect class="st0" x="16" y="80" width="16" height="24"/>
    <rect class="st0" x="16" y="112" width="16" height="24"/>
    <rect class="st0" x="16" y="144" width="16" height="24"/>
    <rect class="st0" x="16" y="176" width="16" height="24"/>
    <rect class="st0" x="16" y="207" width="16" height="25"/>
    <rect class="st0" x="16" y="239" width="16" height="17"/>
  </g>
  <g>
    <rect x="216" y="0" width="31" height="256"/>
    <rect class="st0" x="224" y="0" width="16" height="8"/>
    <rect class="st0" x="224" y="16" width="16" height="24"/>
    <rect class="st0" x="224" y="48" width="16" height="24"/>
    <rect class="st0" x="224" y="80" width="16" height="24"/>
    <rect class="st0" x="224" y="112" width="16" height="24"/>
    <rect class="st0" x="224" y="144" width="16" height="24"/>
    <rect class="st0" x="224" y="176" width="16" height="24"/>
    <rect class="st0" x="224" y="207" width="16" height="25"/>
    <rect class="st0" x="224" y="239" width="16" height="17"/>
  </g>
  <rect x="48" width="159" height="48"/>
  <rect x="48" y="200" width="159" height="56"/>
  <text/>
  <g>
    <rect x="8" y="0" width="31" height="256"/>
    <rect class="st0" x="16" width="16" height="8"/>
    <rect class="st0" x="16" y="16" width="16" height="24"/>
    <rect class="st0" x="16" y="48" width="16" height="24"/>
    <rect class="st0" x="16" y="80" width="16" height="24"/>
    <rect class="st0" x="16" y="112" width="16" height="24"/>
    <rect class="st0" x="16" y="144" width="16" height="24"/>
    <rect class="st0" x="16" y="176" width="16" height="24"/>
    <rect class="st0" x="16" y="207" width="16" height="25"/>
    <rect class="st0" x="16" y="239" width="16" height="17"/>
  </g>
  <g>
    <rect x="8" y="0" width="31" height="256"/>
    <rect class="st0" x="16" width="16" height="8"/>
    <rect class="st0" x="16" y="16" width="16" height="24"/>
    <rect class="st0" x="16" y="48" width="16" height="24"/>
    <rect class="st0" x="16" y="80" width="16" height="24"/>
    <rect class="st0" x="16" y="112" width="16" height="24"/>
    <rect class="st0" x="16" y="144" width="16" height="24"/>
    <rect class="st0" x="16" y="176" width="16" height="24"/>
    <rect class="st0" x="16" y="207" width="16" height="25"/>
    <rect class="st0" x="16" y="239" width="16" height="17"/>
  </g>
  <text class="st1" transform="translate(133.1 180.39)"><tspan x="0" y="0">2</tspan></text>
  <rect x="48" y="56" width="159" height="136"/>
  <path class="st0" d="M195.04,181.25h-54.13v-11.92c14.45-11,24.17-20.48,29.14-26.45,4.98-5.97,7.47-11.27,7.47-15.89,0-3.69-1.2-6.55-3.6-8.57-2.4-2.03-5.69-3.04-9.88-3.04-6.37,0-15.01,2.26-21.92,6.79h-.26v-14.43c8.32-3.19,17.25-4.78,24.79-4.78,8.95,0,15.85,1.95,20.7,5.86,4.84,3.91,7.27,9.38,7.27,16.42,0,5.43-1.97,11.17-5.91,17.23s-13.1,15.58-27.48,26.57h33.81v12.22Z"/>
</svg>